PathFileType	4	(X/Y/Z)	Patient4_TMGait_0pt7_02_right_37.trc.trc
DataRate	CameraRate	NumFrames	NumMarkers	Units	OrigDataRate	OrigDataStartFrame	OrigNumFrames
87.500000000000	87.500000000000	4	33	mm	87.500000000000	53	       141
Frame#	Time	Sacral			L.Shoulder			Chest			R.Shoulder			Neck			R.ASIS			L.ASIS			R.Thigh.Superior			R.Thigh.Lateral			R.Thigh.Inferior			R.Patella			L.Thigh.Superior			L.Thigh.Lateral			L.Thigh.Inferior			L.Patella			L.Shank.Superior			L.Shank.Lateral			L.Shank.Inferior			R.Shank.Superior			R.Shank.Lateral			R.Shank.Inferior			R.Heel			R.Midfoot.Superior			R.Midfoot.Lateral			R.Toe			L.Heel			L.Midfoot.Lateral			L.Midfoot.Superior			L.Toe			L.Elbow			L.Wrist			R.Elbow			R.Wrist			
		X1	Y1	Z1	X2	Y2	Z2	X3	Y3	Z3	X4	Y4	Z4	X5	Y5	Z5	X6	Y6	Z6	X7	Y7	Z7	X8	Y8	Z8	X9	Y9	Z9	X10	Y10	Z10	X11	Y11	Z11	X12	Y12	Z12	X13	Y13	Z13	X14	Y14	Z14	X15	Y15	Z15	X16	Y16	Z16	X17	Y17	Z17	X18	Y18	Z18	X19	Y19	Z19	X20	Y20	Z20	X21	Y21	Z21	X22	Y22	Z22	X23	Y23	Z23	X24	Y24	Z24	X25	Y25	Z25	X26	Y26	Z26	X27	Y27	Z27	X28	Y28	Z28	X29	Y29	Z29	X30	Y30	Z30	X31	Y31	Z31	X32	Y32	Z32	X33	Y33	Z33	

53	42.394285714286	751.791898026854	1027.369242992497	515.887830364411	971.500607810735	1412.581443357373	292.761346548455	1080.926395037959	1337.159326483212	448.785236068478	1027.258840242108	1435.966814547877	622.534025521666	986.163267336846	1483.135636427693	441.393788585896	973.416461593082	937.930972345936	624.664180330526	948.587769492003	950.117731364449	351.365065203427	997.338427678664	736.039996021854	605.466466398240	905.325604070134	637.229846083920	664.050808283144	977.687361699304	578.708319919609	583.798613027561	972.022291644401	494.647088972270	589.369270451238	1035.851207423241	794.487528085850	392.899032040241	1010.183431152215	667.215183224647	308.188294400019	1117.692951872743	612.855870867842	376.049641630820	1137.769436218393	520.710786958223	368.143169330442	1067.958406574772	452.179693078591	360.982213599454	925.079107885182	417.548540321465	309.805876616043	903.361294950213	291.220739036354	367.476321873442	946.017414742243	407.443622515524	596.879338124691	874.831167633323	303.263075008955	657.662777507869	919.425715823105	208.703382730424	593.958884973212	787.682823451007	43.225314564387	558.157059273530	958.604164453504	97.436915338326	600.765637356171	868.694926211925	36.308978758418	635.426080905909	1077.676040658971	42.782458722999	631.093449825413	709.046430362054	240.881000464597	401.286630621017	764.541333080054	186.156392371339	325.625702579601	869.230380132206	188.337087343397	349.281214906437	939.287975970145	69.587760736491	330.588571967403	861.903751235077	1065.984646044107	222.827627104656	920.917469044182	809.362866238021	231.358620197845	1016.294158548505	1099.335928477258	772.527589794311	1221.291617874030	949.055083269810	724.352916729772	
54	42.405714285714	750.813161304921	1027.877104217185	516.126031212177	971.725015210483	1411.775858233079	292.256890164632	1081.059698904244	1336.445381878555	448.339625513349	1027.944471586467	1435.902473179391	621.908076156582	986.388458191915	1482.707169368883	440.892650693957	972.292463010430	937.820501211749	624.728026807155	947.118830477337	950.048623120529	351.255021053920	994.528400577010	735.313040203160	605.170158138646	901.853145157384	637.167477416775	663.972063378154	973.479989384052	578.027929216395	583.579037354013	967.070365518325	494.040225771701	589.114038429194	1036.013205255824	798.195081439966	393.685835927366	1013.588143752148	670.636673721818	308.180821037934	1122.142092979501	618.745928234018	376.259028645398	1144.768807451116	527.203583600185	368.209250412625	1077.305247719647	456.601014203059	360.899942767935	935.588465967855	416.710690886885	310.150747946632	919.122442542752	289.331832864375	367.343946947725	940.492937431661	407.039407861143	596.695109437542	868.716545728836	303.342608861502	657.647972856188	912.451826847741	208.474661233864	593.826041972272	779.573755791317	43.303712803203	558.237699956008	950.507691309063	97.293428143064	600.676319804360	860.644485038495	36.323820812887	635.550557154990	1069.612866179841	42.639822081192	631.174698463230	726.921501186452	230.434831928493	401.849096434830	784.440905593960	179.113315976786	325.230904806387	889.150627410450	185.683707961265	348.449838003715	964.338928817948	70.384091172525	327.932603860912	857.526714387857	1066.491709595922	223.359493841224	898.977850294720	806.336553377697	233.553704388398	1027.702865832914	1099.810192939246	771.731307505545	1242.824427123325	968.084180261668	718.034232671257	
55	42.417142857143	749.894910987988	1028.339313406219	516.077121487963	972.056017568180	1410.983641823924	291.671538349553	1081.249263949364	1335.726030115156	447.847409169138	1028.587806219882	1435.818108276346	621.207615926594	986.648675759852	1482.253819339996	440.367966863718	971.180974200071	937.632761129625	624.725015330470	945.877654461294	949.912123697559	351.032630928399	991.796509757562	734.555404588082	604.670792493523	898.535845674878	637.059525987666	663.748074905594	969.449142444238	577.320532782547	583.216034629457	962.314542616681	493.380051443344	588.765786158758	1035.998314074703	801.417998876372	394.239667506250	1016.493940396382	673.639293325715	308.069105950397	1125.820606224540	623.967654093434	376.388365319921	1150.817395272840	533.172606229028	368.220172406713	1085.928052434988	460.590594186517	360.741809180073	945.815576473424	415.021534037708	310.223662299331	934.966663321655	286.727930751071	366.975057658199	935.133530545098	406.569446200133	596.416629688803	862.710013252445	303.408153052767	657.550164122732	905.529366876447	208.214319196599	593.654616896087	771.492561232071	43.394398039353	558.324184137145	942.411812076517	97.139895024077	600.556683500158	852.596834914135	36.355643006486	635.683801469901	1061.545893913439	42.494492069909	631.249363619345	745.440634409935	218.802217656133	401.926773354888	805.063068675276	171.091568964565	324.503243862257	909.520411994665	182.362575504820	347.439606397962	990.034495178618	70.906801279490	325.319305943316	852.777624043412	1067.366655313525	223.426141175581	878.192862256186	805.255685076020	235.826693638273	1039.055535727697	1100.654730400314	770.592175814979	1262.659365064551	988.579610580486	711.341636805519	
56	42.428571428571	749.059273026866	1028.741619612986	515.744519049018	972.470247481082	1410.220293773625	291.014939588414	1081.490374228177	1334.997160853989	447.295530553606	1029.211790711154	1435.692352520855	620.436687783439	986.948944053580	1481.774274475648	439.836548315462	970.095840797384	937.364221753540	624.635504105602	944.883444726270	949.682018175936	350.690585850677	989.155708599371	733.766568514531	603.983937480454	895.375446978600	636.900860567247	663.383898397215	965.604950435775	576.578028462577	582.723505147081	957.759702660502	492.662270605336	588.326140946038	1035.833069795061	804.088609643481	394.593371915408	1018.908334502834	676.136314167203	307.880407999443	1128.718015768385	628.374186652603	376.475560303757	1155.873386217447	538.469236179158	368.227022704049	1093.758779554479	464.050324562747	360.557504625355	955.794416141224	412.460468209810	309.976553162183	950.820251575575	283.474760145597	366.381603035399	929.940590637931	406.023288368357	596.035388180308	856.816486592074	303.456622978479	657.367917875822	898.663910572798	207.920542344236	593.439354667968	763.443984699147	43.497701008512	558.421333688822	934.324023286907	96.982660654730	600.412589082862	844.552988686105	36.406850398950	635.824702346301	1053.476695905471	42.347017251480	631.317954477891	764.589053874284	206.182222329918	401.405545407750	826.399559997366	162.249797693430	323.416327536549	930.246618019813	178.490083431772	346.300996143936	1016.199643015643	71.311544649980	322.957644223255	847.712444924908	1068.601665620448	223.088341961840	858.772028065105	805.793379553034	238.166544128456	1050.334483022105	1101.836571508816	769.102542035900	1280.640898859993	1010.299372873190	704.352440653507	
